<svg width="20" height="20" viewBox="0 0 20 20" fill="none" xmlns="http://www.w3.org/2000/svg">
<circle cx="10" cy="10" r="10" fill="#D42323"/>
<mask id="path-2-inside-1" fill="white">
<path d="M10 20C8.02219 20 6.0888 19.4135 4.4443 18.3147C2.79981 17.2159 1.51809 15.6541 0.761214 13.8268C0.00433752 11.9996 -0.193703 9.98891 0.192149 8.0491C0.578001 6.10929 1.53041 4.32746 2.92894 2.92893C4.32746 1.53041 6.10928 0.578004 8.04909 0.192152C9.9889 -0.1937 11.9996 0.00433344 13.8268 0.76121C15.6541 1.51809 17.2159 2.79981 18.3147 4.4443C19.4135 6.08879 20 8.02218 20 10C19.9965 12.6511 18.9418 15.1926 17.0672 17.0672C15.1926 18.9418 12.6511 19.9965 10 20ZM10 0.444451C8.1101 0.444451 6.26263 1.00487 4.69123 2.05485C3.11982 3.10483 1.89505 4.5972 1.17182 6.34325C0.44858 8.0893 0.259359 10.0106 0.628062 11.8642C0.996765 13.7178 1.90683 15.4204 3.2432 16.7568C4.57957 18.0932 6.28221 19.0032 8.1358 19.3719C9.9894 19.7406 11.9107 19.5514 13.6568 18.8282C15.4028 18.1049 16.8952 16.8802 17.9452 15.3088C18.9951 13.7374 19.5556 11.8899 19.5556 10C19.552 7.46679 18.5442 5.03835 16.7529 3.2471C14.9617 1.45585 12.5332 0.447978 10 0.444451Z"/>
</mask>
<path d="M20 10L21 10.0013V10H20ZM19.5556 10H20.5556L20.5556 9.9986L19.5556 10ZM10 19C8.21998 19 6.47992 18.4722 4.99988 17.4832L3.88873 19.1462C5.69768 20.3549 7.82441 21 10 21V19ZM4.99988 17.4832C3.51983 16.4943 2.36628 15.0887 1.68509 13.4441L-0.162666 14.2095C0.669898 16.2195 2.07979 17.9375 3.88873 19.1462L4.99988 17.4832ZM1.68509 13.4441C1.0039 11.7996 0.825668 9.99001 1.17293 8.24419L-0.788636 7.85401C-1.21307 9.9878 -0.995229 12.1995 -0.162666 14.2095L1.68509 13.4441ZM1.17293 8.24419C1.5202 6.49836 2.37737 4.89471 3.63604 3.63604L2.22183 2.22183C0.683454 3.7602 -0.364199 5.72022 -0.788636 7.85401L1.17293 8.24419ZM3.63604 3.63604C4.89472 2.37737 6.49836 1.5202 8.24418 1.17294L7.854 -0.788633C5.72021 -0.364196 3.76021 0.68345 2.22183 2.22183L3.63604 3.63604ZM8.24418 1.17294C9.99001 0.82567 11.7996 1.0039 13.4441 1.68509L14.2095 -0.16267C12.1995 -0.995234 9.98779 -1.21307 7.854 -0.788633L8.24418 1.17294ZM13.4441 1.68509C15.0887 2.36628 16.4943 3.51983 17.4832 4.99987L19.1462 3.88873C17.9375 2.07979 16.2195 0.669894 14.2095 -0.16267L13.4441 1.68509ZM17.4832 4.99987C18.4722 6.47992 19 8.21997 19 10H21C21 7.8244 20.3549 5.69767 19.1462 3.88873L17.4832 4.99987ZM19 9.99867C18.9968 12.385 18.0475 14.6727 16.3601 16.3601L17.7743 17.7743C19.8361 15.7125 20.9961 12.9172 21 10.0013L19 9.99867ZM16.3601 16.3601C14.6727 18.0475 12.385 18.9968 9.99868 19L10.0013 21C12.9172 20.9961 15.7125 19.8361 17.7743 17.7743L16.3601 16.3601ZM10 -0.555549C7.91232 -0.555549 5.87151 0.0635201 4.13566 1.22338L5.2468 2.88632C6.65375 1.94622 8.30788 1.44445 10 1.44445V-0.555549ZM4.13566 1.22338C2.39981 2.38324 1.04686 4.03179 0.247938 5.96057L2.0957 6.72594C2.74325 5.16262 3.83984 3.82642 5.2468 2.88632L4.13566 1.22338ZM0.247938 5.96057C-0.550988 7.88935 -0.760011 10.0117 -0.352723 12.0593L1.60885 11.6691C1.27873 10.0095 1.44815 8.28926 2.0957 6.72594L0.247938 5.96057ZM-0.352723 12.0593C0.0545643 14.1069 1.05987 15.9877 2.53609 17.4639L3.95031 16.0497C2.75379 14.8532 1.93897 13.3287 1.60885 11.6691L-0.352723 12.0593ZM2.53609 17.4639C4.01232 18.9401 5.89314 19.9454 7.94071 20.3527L8.33089 18.3912C6.67128 18.061 5.14682 17.2462 3.95031 16.0497L2.53609 17.4639ZM7.94071 20.3527C9.98829 20.76 12.1107 20.551 14.0394 19.7521L13.2741 17.9043C11.7108 18.5519 9.99051 18.7213 8.33089 18.3912L7.94071 20.3527ZM14.0394 19.7521C15.9682 18.9531 17.6168 17.6002 18.7766 15.8644L17.1137 14.7532C16.1736 16.1602 14.8374 17.2568 13.2741 17.9043L14.0394 19.7521ZM18.7766 15.8644C19.9365 14.1285 20.5556 12.0877 20.5556 10H18.5556C18.5556 11.6921 18.0538 13.3463 17.1137 14.7532L18.7766 15.8644ZM20.5556 9.9986C20.5517 7.20066 19.4385 4.51844 17.46 2.54L16.0458 3.95421C17.6499 5.55826 18.5524 7.73292 18.5556 10.0014L20.5556 9.9986ZM17.46 2.54C15.4816 0.561551 12.7993 -0.551652 10.0014 -0.555548L9.99862 1.44445C12.2671 1.44761 14.4417 2.35016 16.0458 3.95421L17.46 2.54Z" fill="#D42323" mask="url(#path-2-inside-1)"/>
<path d="M14.609 6.53777H5.38678C5.32784 6.53777 5.27131 6.51436 5.22963 6.47268C5.18796 6.43101 5.16455 6.37448 5.16455 6.31554C5.16455 6.25661 5.18796 6.20009 5.22963 6.15841C5.27131 6.11674 5.32784 6.09332 5.38678 6.09332H14.609C14.6679 6.09332 14.7245 6.11674 14.7661 6.15841C14.8078 6.20009 14.8312 6.25661 14.8312 6.31554C14.8312 6.37448 14.8078 6.43101 14.7661 6.47268C14.7245 6.51436 14.6679 6.53777 14.609 6.53777Z" stroke="white"/>
<path d="M11.3647 6.45334C11.302 6.13761 11.1317 5.85341 10.8829 5.64917C10.6341 5.44493 10.3222 5.3333 10.0003 5.3333C9.6784 5.3333 9.36647 5.44493 9.11766 5.64917C8.86886 5.85341 8.69858 6.13761 8.63585 6.45334L8.19141 6.36445C8.27454 5.94825 8.49932 5.57373 8.8275 5.30461C9.15569 5.0355 9.56699 4.88843 9.9914 4.88843C10.4158 4.88843 10.8271 5.0355 11.1553 5.30461C11.4835 5.57373 11.7083 5.94825 11.7914 6.36445L11.347 6.45334H11.3647Z" stroke="white"/>
<path d="M12.9956 15.1023H7.00452C6.83246 15.0958 6.66906 15.0252 6.54649 14.9042C6.42392 14.7833 6.35107 14.6209 6.34231 14.4489L5.89786 6.7467C5.89433 6.68776 5.91435 6.62983 5.95353 6.58566C5.9927 6.54148 6.04781 6.51468 6.10675 6.51114C6.16569 6.50761 6.22361 6.52762 6.26779 6.5668C6.31196 6.60597 6.33877 6.66109 6.34231 6.72003L6.78675 14.4223C6.78759 14.4815 6.8103 14.5383 6.8505 14.5818C6.8907 14.6252 6.94556 14.6523 7.00452 14.6578H12.9956C13.0542 14.6514 13.1085 14.624 13.1486 14.5808C13.1886 14.5375 13.2116 14.4812 13.2134 14.4223L13.6579 6.72003C13.6624 6.66148 13.6895 6.60698 13.7335 6.56802C13.7774 6.52905 13.8347 6.50866 13.8934 6.51114C13.9226 6.51284 13.9512 6.52029 13.9775 6.53306C14.0038 6.54583 14.0274 6.56367 14.0468 6.58555C14.0662 6.60743 14.0811 6.63294 14.0906 6.66059C14.1001 6.68824 14.1041 6.7175 14.1023 6.7467L13.6579 14.4489C13.6511 14.6216 13.579 14.7852 13.456 14.9065C13.333 15.0279 13.1684 15.0979 12.9956 15.1023V15.1023Z" stroke="white" stroke-width="0.5"/>
<path d="M8.31532 13.4711C8.25863 13.4712 8.20403 13.4497 8.16272 13.4108C8.12141 13.372 8.0965 13.3188 8.0931 13.2622L7.79532 7.96447C7.79178 7.90554 7.81181 7.84761 7.85098 7.80343C7.89016 7.75926 7.94527 7.73245 8.00421 7.72892C8.06314 7.72538 8.12107 7.74541 8.16525 7.78458C8.20942 7.82376 8.23623 7.87887 8.23976 7.93781L8.53755 13.2356C8.53935 13.2648 8.53537 13.294 8.52584 13.3217C8.51631 13.3493 8.50141 13.3749 8.482 13.3967C8.4626 13.4186 8.43907 13.4365 8.41275 13.4492C8.38643 13.462 8.35786 13.4694 8.32866 13.4711H8.31532Z" stroke="white" stroke-width="0.5"/>
<path d="M11.7025 13.4711C11.6733 13.4694 11.6447 13.462 11.6184 13.4492C11.5921 13.4365 11.5685 13.4186 11.5491 13.3967C11.5297 13.3749 11.5148 13.3493 11.5053 13.3217C11.4958 13.294 11.4918 13.2648 11.4936 13.2356L11.7914 7.93781C11.7949 7.87887 11.8217 7.82376 11.8659 7.78458C11.91 7.74541 11.968 7.72538 12.0269 7.72892C12.0859 7.73245 12.141 7.75926 12.1802 7.80343C12.2193 7.84761 12.2394 7.90554 12.2358 7.96447L11.938 13.2622C11.9346 13.3188 11.9097 13.372 11.8684 13.4108C11.8271 13.4497 11.7725 13.4712 11.7158 13.4711H11.7025Z" stroke="white" stroke-width="0.5"/>
<path d="M10.0001 13.4711C9.94112 13.4711 9.88459 13.4477 9.84292 13.406C9.80124 13.3644 9.77784 13.3078 9.77784 13.2489V7.95557C9.77784 7.89663 9.80124 7.8401 9.84292 7.79842C9.88459 7.75675 9.94112 7.73334 10.0001 7.73334C10.059 7.73334 10.1155 7.75675 10.1572 7.79842C10.1989 7.8401 10.2223 7.89663 10.2223 7.95557V13.2533C10.2223 13.3123 10.1989 13.3688 10.1572 13.4105C10.1155 13.4521 10.059 13.4756 10.0001 13.4756V13.4711Z" stroke="white" stroke-width="0.5"/>
</svg>
