<svg width="20" height="20" viewBox="0 0 20 20" fill="none" xmlns="http://www.w3.org/2000/svg">
<circle cx="10" cy="10" r="10" fill="#2E3DC7"/>
<path d="M7.729 6.03999C7.85742 5.91237 7.99563 5.79497 8.14234 5.68888C8.30141 5.57252 8.47103 5.47134 8.649 5.38666C8.84103 5.29596 9.04217 5.22594 9.249 5.17777C9.4808 5.12508 9.71797 5.09973 9.95567 5.10222C10.2577 5.10091 10.558 5.14894 10.8446 5.24444C11.114 5.33317 11.3643 5.4719 11.5823 5.65333C11.8021 5.83732 11.978 6.06806 12.0972 6.32873C12.2164 6.5894 12.2758 6.8734 12.2712 7.15999C12.2784 7.46405 12.224 7.76642 12.1112 8.04888C12.0113 8.28641 11.8748 8.50685 11.7068 8.70221C11.5486 8.88502 11.3712 9.05041 11.1779 9.19555L10.6446 9.59555C10.4925 9.7082 10.3511 9.83466 10.2223 9.97333C10.1125 10.0878 10.0464 10.2372 10.0357 10.3955L9.95567 11.5067H9.51123L9.47568 10.3467V10.3111C9.47328 10.1342 9.53129 9.96173 9.64012 9.82222C9.75917 9.67119 9.89484 9.53403 10.0446 9.41333C10.2046 9.28444 10.3779 9.15111 10.569 9.01333C10.7571 8.88162 10.9327 8.73285 11.0934 8.56888C11.2572 8.39497 11.3936 8.19715 11.4979 7.98221C11.612 7.73598 11.6683 7.46689 11.6623 7.19555C11.6674 6.97739 11.6224 6.76098 11.5307 6.56296C11.439 6.36494 11.3031 6.19059 11.1334 6.05333C10.9659 5.91709 10.7745 5.81311 10.569 5.74666C10.3539 5.67565 10.1288 5.63964 9.90234 5.64C9.63809 5.6347 9.37493 5.6753 9.12456 5.75999C8.93143 5.82602 8.74652 5.914 8.57345 6.02221C8.44955 6.10167 8.33214 6.19085 8.22234 6.28888C8.13789 6.36888 8.07568 6.40888 8.04456 6.40888C8.01439 6.4112 7.98417 6.40492 7.95742 6.39076C7.93067 6.3766 7.9085 6.35514 7.89345 6.32888L7.729 6.03999ZM9.0979 14.2844C9.0979 14.2005 9.1145 14.1174 9.14678 14.04C9.1776 13.9652 9.22292 13.8972 9.28012 13.84C9.33683 13.7842 9.40306 13.7391 9.47568 13.7067C9.5535 13.6728 9.63746 13.6553 9.72234 13.6553C9.80722 13.6553 9.89118 13.6728 9.969 13.7067C10.1202 13.7704 10.2411 13.8897 10.3068 14.04C10.34 14.1172 10.3567 14.2004 10.3557 14.2844C10.3576 14.37 10.3409 14.4549 10.3068 14.5333C10.2731 14.6063 10.2264 14.6726 10.169 14.7289C10.112 14.7864 10.044 14.8317 9.969 14.8622C9.89155 14.8945 9.80847 14.9111 9.72456 14.9111C9.64214 14.9123 9.56031 14.8969 9.48398 14.8658C9.40764 14.8347 9.33838 14.7885 9.2803 14.73C9.22221 14.6715 9.17651 14.6019 9.14594 14.5253C9.11536 14.4488 9.10053 14.3668 9.10233 14.2844H9.0979Z" fill="#2EC754" stroke="white"/>
</svg>
