<svg width="20" height="20" viewBox="0 0 20 20" fill="none" xmlns="http://www.w3.org/2000/svg">
<circle cx="10" cy="10" r="10" fill="#2E3DC7"/>
<path d="M14.3731 5.66229H4.98199C4.92305 5.66229 4.86652 5.63886 4.82485 5.59719C4.78317 5.55551 4.75977 5.49901 4.75977 5.44007C4.75977 5.38113 4.78317 5.3246 4.82485 5.28292C4.86652 5.24125 4.92305 5.21785 4.98199 5.21785H14.3687C14.4276 5.21785 14.4841 5.24125 14.5258 5.28292C14.5675 5.3246 14.5909 5.38113 14.5909 5.44007C14.5909 5.49901 14.5675 5.55551 14.5258 5.59719C14.4841 5.63886 14.4276 5.66229 14.3687 5.66229H14.3731Z" stroke="white" stroke-width="0.5"/>
<path d="M6.59576 11.1778H4.98687C4.92793 11.1778 4.87141 11.1544 4.82973 11.1127C4.78806 11.071 4.76464 11.0145 4.76464 10.9556C4.76464 10.8966 4.78806 10.8401 4.82973 10.7984C4.87141 10.7567 4.92793 10.7333 4.98687 10.7333H6.59576C6.6547 10.7333 6.71122 10.7567 6.7529 10.7984C6.79457 10.8401 6.81799 10.8966 6.81799 10.9556C6.81799 11.0145 6.79457 11.071 6.7529 11.1127C6.71122 11.1544 6.6547 11.1778 6.59576 11.1778Z" stroke="white" stroke-width="0.5"/>
<path d="M7.5602 13.9379H4.98687C4.92793 13.9379 4.87141 13.9144 4.82973 13.8728C4.78806 13.8311 4.76464 13.7746 4.76464 13.7156C4.76464 13.6567 4.78806 13.6002 4.82973 13.5585C4.87141 13.5168 4.92793 13.4934 4.98687 13.4934H7.5602C7.61914 13.4934 7.67566 13.5168 7.71733 13.5585C7.75901 13.6002 7.78242 13.6567 7.78242 13.7156C7.78242 13.7746 7.75901 13.8311 7.71733 13.8728C7.67566 13.9144 7.61914 13.9379 7.5602 13.9379Z" stroke="white" stroke-width="0.5"/>
<path d="M7.5602 8.41782H4.98687C4.92793 8.41782 4.87141 8.39442 4.82973 8.35275C4.78806 8.31107 4.76464 8.25454 4.76464 8.1956C4.76464 8.13666 4.78806 8.08016 4.82973 8.03848C4.87141 7.99681 4.92793 7.97338 4.98687 7.97338H7.5602C7.61914 7.97338 7.67566 7.99681 7.71733 8.03848C7.75901 8.08016 7.78242 8.13666 7.78242 8.1956C7.78242 8.25454 7.75901 8.31107 7.71733 8.35275C7.67566 8.39442 7.61914 8.41782 7.5602 8.41782Z" stroke="white" stroke-width="0.5"/>
<path d="M12.3437 13.9964H11.6527C11.5578 13.9964 11.4667 13.9585 11.3996 13.891C11.3325 13.8236 11.2947 13.7321 11.2947 13.6367V13.1978C11.292 13.1825 11.2856 13.168 11.2763 13.1555C11.267 13.143 11.2549 13.1329 11.2411 13.1259L10.994 13.0288C10.9723 13.0277 10.9509 13.034 10.9332 13.0468L10.6253 13.3561C10.592 13.3904 10.5521 13.4176 10.5082 13.4362C10.4642 13.4548 10.417 13.4643 10.3693 13.4643C10.3216 13.4643 10.2744 13.4548 10.2305 13.4362C10.1865 13.4176 10.1467 13.3904 10.1134 13.3561L9.64797 12.8777C9.61387 12.8442 9.58678 12.8042 9.56828 12.76C9.54978 12.7159 9.54026 12.6684 9.54026 12.6205C9.54026 12.5726 9.54978 12.5252 9.56828 12.481C9.58678 12.4368 9.61387 12.3968 9.64797 12.3633L9.95585 12.054C9.96222 12.0405 9.96552 12.0257 9.96552 12.0108C9.96552 11.9959 9.96222 11.9811 9.95585 11.9676L9.86992 11.7554C9.86375 11.7392 9.85364 11.7247 9.84051 11.7134C9.82739 11.7021 9.81165 11.6943 9.79475 11.6907H9.35799C9.26305 11.6907 9.172 11.6527 9.10486 11.5853C9.03772 11.5178 9 11.4263 9 11.3309V10.6547C9 10.5593 9.03772 10.4678 9.10486 10.4003C9.172 10.3329 9.26305 10.295 9.35799 10.295H9.79475C9.81003 10.2922 9.82445 10.2858 9.83688 10.2765C9.8493 10.2671 9.85939 10.255 9.86635 10.241L9.95227 10.0324C9.96073 10.017 9.96517 9.99963 9.96517 9.98202C9.96517 9.96441 9.96073 9.94708 9.95227 9.93165L9.6444 9.62231C9.6103 9.58881 9.58321 9.54879 9.56471 9.50463C9.54621 9.46046 9.53667 9.41302 9.53667 9.3651C9.53667 9.31718 9.54621 9.26974 9.56471 9.22558C9.58321 9.18141 9.6103 9.14142 9.6444 9.10792L10.1205 8.6295C10.1539 8.59524 10.1937 8.56801 10.2376 8.54943C10.2816 8.53084 10.3288 8.52126 10.3765 8.52126C10.4242 8.52126 10.4714 8.53084 10.5153 8.54943C10.5593 8.56801 10.5991 8.59524 10.6325 8.6295L10.9403 8.93884C10.958 8.95155 10.9795 8.95788 11.0012 8.95683H11.0406L11.2375 8.8741C11.2538 8.86819 11.2683 8.85812 11.2796 8.84488C11.2909 8.83164 11.2986 8.81567 11.3019 8.79855V8.35971C11.3019 8.26431 11.3396 8.17282 11.4068 8.10536C11.4739 8.0379 11.565 8 11.6599 8H12.3329C12.4279 8 12.5189 8.0379 12.5861 8.10536C12.6532 8.17282 12.6909 8.26431 12.6909 8.35971V8.79855C12.6937 8.8139 12.7 8.8284 12.7093 8.84088C12.7187 8.85337 12.7307 8.86351 12.7446 8.8705L12.9916 8.96763C13.0134 8.96868 13.0348 8.96235 13.0525 8.94965L13.3604 8.64028C13.3937 8.60602 13.4335 8.57881 13.4775 8.56023C13.5215 8.54164 13.5687 8.53206 13.6163 8.53206C13.664 8.53206 13.7112 8.54164 13.7552 8.56023C13.7992 8.57881 13.839 8.60602 13.8723 8.64028L14.3484 9.1223C14.3825 9.1558 14.4096 9.19581 14.4281 9.23998C14.4466 9.28415 14.4562 9.33159 14.4562 9.37951C14.4562 9.42742 14.4466 9.47484 14.4281 9.51901C14.4096 9.56317 14.3825 9.60319 14.3484 9.63669L14.0406 9.94603C14.0336 9.96 14.03 9.97539 14.03 9.991C14.03 10.0066 14.0336 10.022 14.0406 10.036L14.1265 10.2446C14.133 10.2613 14.1436 10.276 14.1574 10.2873C14.1712 10.2987 14.1877 10.3063 14.2053 10.3093H14.642C14.737 10.3093 14.828 10.3473 14.8951 10.4147C14.9623 10.4822 15 10.5737 15 10.6691V11.3453C15 11.4407 14.9623 11.5322 14.8951 11.5997C14.828 11.6671 14.737 11.705 14.642 11.705H14.2053C14.19 11.7078 14.1756 11.7142 14.1631 11.7235C14.1507 11.7329 14.1406 11.745 14.1336 11.759L14.0477 11.9676C14.0393 11.983 14.0348 12.0004 14.0348 12.018C14.0348 12.0356 14.0393 12.0529 14.0477 12.0683L14.3556 12.3777C14.3897 12.4112 14.4168 12.4512 14.4353 12.4954C14.4538 12.5395 14.4633 12.587 14.4633 12.6349C14.4633 12.6828 14.4538 12.7303 14.4353 12.7744C14.4168 12.8186 14.3897 12.8586 14.3556 12.8921L13.8795 13.3705C13.8461 13.4048 13.8063 13.432 13.7624 13.4506C13.7184 13.4692 13.6712 13.4787 13.6235 13.4787C13.5758 13.4787 13.5286 13.4692 13.4847 13.4506C13.4407 13.432 13.4009 13.4048 13.3675 13.3705L13.0597 13.0612C13.042 13.0485 13.0205 13.0421 12.9988 13.0432H12.9594L12.7625 13.1259C12.7464 13.1321 12.732 13.1423 12.7208 13.1555C12.7095 13.1686 12.7017 13.1845 12.6981 13.2014V13.6403C12.6981 13.7357 12.6604 13.8272 12.5932 13.8946C12.5261 13.9621 12.435 14 12.3401 14L12.3437 13.9964ZM11.0084 12.6655C11.0729 12.6654 11.1366 12.6802 11.1945 12.7086L11.3807 12.7842C11.4635 12.8163 11.535 12.8724 11.586 12.9454C11.637 13.0185 11.6652 13.1051 11.6671 13.1942V13.6331H12.3508V13.1942C12.3533 13.1033 12.383 13.0152 12.436 12.9414C12.489 12.8676 12.5628 12.8116 12.648 12.7806L12.8341 12.705C12.916 12.6734 13.0049 12.6647 13.0913 12.6799C13.1777 12.6951 13.2583 12.7336 13.3246 12.7914L13.6325 13.1007L14.1158 12.6223L13.8079 12.3057C13.7454 12.2398 13.7042 12.1565 13.6895 12.0667C13.6748 11.9769 13.6873 11.8847 13.7255 11.8022L13.8007 11.6151C13.8327 11.5319 13.8885 11.4601 13.9612 11.4088C14.0339 11.3576 14.1201 11.3292 14.2088 11.3273H14.6456V10.6439H14.2053C14.1147 10.6414 14.0271 10.6116 13.9536 10.5583C13.8802 10.5051 13.8244 10.4309 13.7936 10.3453L13.7184 10.1583C13.6825 10.0768 13.6715 9.9865 13.6868 9.89876C13.7021 9.81103 13.743 9.72982 13.8043 9.66547L14.1122 9.35612L13.636 8.8705L13.321 9.17985C13.2544 9.24094 13.1716 9.2813 13.0826 9.29599C12.9937 9.31068 12.9023 9.29907 12.8198 9.26259L12.6336 9.18705C12.5515 9.15439 12.4808 9.09802 12.4305 9.02504C12.3801 8.95206 12.3524 8.86574 12.3508 8.77697V8.33813H11.6527V8.78057C11.6503 8.87152 11.6206 8.95963 11.5676 9.03341C11.5146 9.10718 11.4407 9.16323 11.3556 9.19425L11.1694 9.26977C11.0877 9.30186 10.9987 9.31079 10.9122 9.29557C10.8257 9.28035 10.7451 9.24156 10.679 9.18345L10.3711 8.8741L9.88783 9.35252L10.1957 9.66907C10.2582 9.735 10.2994 9.8183 10.3141 9.90812C10.3288 9.99794 10.3162 10.0901 10.278 10.1727L10.2208 10.3597C10.1888 10.4429 10.133 10.5148 10.0603 10.566C9.98761 10.6172 9.90141 10.6456 9.81264 10.6475H9.3759V11.3309H9.81623C9.90675 11.3334 9.99443 11.3632 10.0679 11.4165C10.1413 11.4697 10.1971 11.544 10.2279 11.6295L10.3031 11.8165C10.3387 11.8975 10.3495 11.9872 10.3342 12.0743C10.3189 12.1614 10.2782 12.242 10.2172 12.3057L9.90931 12.6151L10.3854 13.1007L10.7005 12.7914C10.785 12.7095 10.8981 12.6643 11.0155 12.6655H11.0084ZM12.0072 12.0575C11.7947 12.0575 11.5871 11.9943 11.4105 11.8757C11.2339 11.7571 11.0962 11.5886 11.0149 11.3914C10.9336 11.1942 10.9124 10.9772 10.9538 10.7679C10.9952 10.5585 11.0975 10.3663 11.2477 10.2154C11.3979 10.0644 11.5893 9.96166 11.7976 9.92002C12.006 9.87838 12.2219 9.89975 12.4182 9.98143C12.6144 10.0631 12.7821 10.2014 12.9001 10.3789C13.0182 10.5563 13.0811 10.765 13.0811 10.9784C13.0811 11.2646 12.968 11.5391 12.7666 11.7415C12.5652 11.9439 12.292 12.0575 12.0072 12.0575V12.0575ZM12.0072 10.259C11.8655 10.259 11.7271 10.3012 11.6094 10.3802C11.4916 10.4593 11.3999 10.5717 11.3457 10.7031C11.2915 10.8346 11.2773 10.9792 11.3049 11.1188C11.3326 11.2583 11.4007 11.3865 11.5009 11.4871C11.601 11.5877 11.7286 11.6563 11.8675 11.684C12.0064 11.7118 12.1503 11.6975 12.2812 11.6431C12.412 11.5886 12.5238 11.4964 12.6025 11.3781C12.6812 11.2598 12.7231 11.1207 12.7231 10.9784C12.7231 10.7876 12.6477 10.6046 12.5134 10.4697C12.3792 10.3348 12.197 10.259 12.0072 10.259Z" stroke="white" stroke-width="0.5"/>
</svg>
