<svg width="20" height="20" viewBox="0 0 20 20" fill="none" xmlns="http://www.w3.org/2000/svg">
<circle cx="10" cy="10" r="10" fill="#2EC754"/>
<mask id="path-2-inside-1" fill="white">
<path d="M10 20C8.02219 20 6.08879 19.4135 4.4443 18.3147C2.79981 17.2159 1.51808 15.6541 0.761208 13.8268C0.00433206 11.9996 -0.193695 9.98891 0.192157 8.0491C0.578009 6.10929 1.53041 4.32746 2.92893 2.92893C4.32746 1.53041 6.10929 0.57801 8.0491 0.192158C9.98891 -0.193694 11.9996 0.00433259 13.8268 0.761209C15.6541 1.51808 17.2159 2.79981 18.3147 4.4443C19.4135 6.08879 20 8.02219 20 10C19.9965 12.6511 18.9418 15.1926 17.0672 17.0672C15.1926 18.9418 12.6511 19.9965 10 20ZM10 0.44445C8.11009 0.44445 6.26262 1.00488 4.69122 2.05486C3.11982 3.10483 1.89506 4.5972 1.17183 6.34325C0.448588 8.0893 0.259353 10.0106 0.628057 11.8642C0.99676 13.7178 1.90684 15.4204 3.24321 16.7568C4.57958 18.0932 6.2822 19.0032 8.1358 19.3719C9.9894 19.7407 11.9107 19.5514 13.6568 18.8282C15.4028 18.1049 16.8952 16.8802 17.9452 15.3088C18.9951 13.7374 19.5556 11.8899 19.5556 10C19.5532 7.46644 18.5457 5.0373 16.7542 3.2458C14.9627 1.4543 12.5336 0.446803 10 0.44445Z"/>
</mask>
<path d="M10 20C8.02219 20 6.08879 19.4135 4.4443 18.3147C2.79981 17.2159 1.51808 15.6541 0.761208 13.8268C0.00433206 11.9996 -0.193695 9.98891 0.192157 8.0491C0.578009 6.10929 1.53041 4.32746 2.92893 2.92893C4.32746 1.53041 6.10929 0.57801 8.0491 0.192158C9.98891 -0.193694 11.9996 0.00433259 13.8268 0.761209C15.6541 1.51808 17.2159 2.79981 18.3147 4.4443C19.4135 6.08879 20 8.02219 20 10C19.9965 12.6511 18.9418 15.1926 17.0672 17.0672C15.1926 18.9418 12.6511 19.9965 10 20ZM10 0.44445C8.11009 0.44445 6.26262 1.00488 4.69122 2.05486C3.11982 3.10483 1.89506 4.5972 1.17183 6.34325C0.448588 8.0893 0.259353 10.0106 0.628057 11.8642C0.99676 13.7178 1.90684 15.4204 3.24321 16.7568C4.57958 18.0932 6.2822 19.0032 8.1358 19.3719C9.9894 19.7407 11.9107 19.5514 13.6568 18.8282C15.4028 18.1049 16.8952 16.8802 17.9452 15.3088C18.9951 13.7374 19.5556 11.8899 19.5556 10C19.5532 7.46644 18.5457 5.0373 16.7542 3.2458C14.9627 1.4543 12.5336 0.446803 10 0.44445Z" fill="#2EC754"/>
<path d="M20 10L21 10.0013V10H20ZM19.5556 10H20.5556V9.99907L19.5556 10ZM10 19C8.21997 19 6.47991 18.4722 4.99987 17.4832L3.88873 19.1462C5.69767 20.3549 7.82441 21 10 21V19ZM4.99987 17.4832C3.51983 16.4943 2.36628 15.0887 1.68509 13.4442L-0.162671 14.2095C0.669892 16.2195 2.07979 17.9375 3.88873 19.1462L4.99987 17.4832ZM1.68509 13.4442C1.0039 11.7996 0.825675 9.99002 1.17294 8.24419L-0.788628 7.85401C-1.21306 9.9878 -0.995236 12.1995 -0.162671 14.2095L1.68509 13.4442ZM1.17294 8.24419C1.52021 6.49836 2.37737 4.89471 3.63604 3.63604L2.22183 2.22183C0.683445 3.76021 -0.364192 5.72023 -0.788628 7.85401L1.17294 8.24419ZM3.63604 3.63604C4.89471 2.37737 6.49836 1.52021 8.24419 1.17294L7.85401 -0.788628C5.72023 -0.364191 3.76021 0.683446 2.22183 2.22183L3.63604 3.63604ZM8.24419 1.17294C9.99002 0.825676 11.7996 1.0039 13.4442 1.68509L14.2095 -0.162671C12.1995 -0.995235 9.9878 -1.21306 7.85401 -0.788628L8.24419 1.17294ZM13.4442 1.68509C15.0887 2.36628 16.4943 3.51983 17.4832 4.99987L19.1462 3.88873C17.9375 2.07979 16.2195 0.669893 14.2095 -0.162671L13.4442 1.68509ZM17.4832 4.99987C18.4722 6.47991 19 8.21997 19 10H21C21 7.82441 20.3549 5.69767 19.1462 3.88873L17.4832 4.99987ZM19 9.99867C18.9968 12.385 18.0474 14.6727 16.3601 16.3601L17.7743 17.7743C19.8361 15.7125 20.9961 12.9172 21 10.0013L19 9.99867ZM16.3601 16.3601C14.6727 18.0474 12.385 18.9968 9.99867 19L10.0013 21C12.9172 20.9961 15.7125 19.8361 17.7743 17.7743L16.3601 16.3601ZM10 -0.55555C7.91231 -0.55555 5.8715 0.0635273 4.13565 1.22339L5.24679 2.88632C6.65375 1.94623 8.30788 1.44445 10 1.44445V-0.55555ZM4.13565 1.22339C2.3998 2.38324 1.04687 4.03179 0.247946 5.96057L2.09571 6.72594C2.74325 5.16261 3.83984 3.82642 5.24679 2.88632L4.13565 1.22339ZM0.247946 5.96057C-0.550978 7.88934 -0.760017 10.0117 -0.352729 12.0593L1.60884 11.6691C1.27872 10.0095 1.44815 8.28926 2.09571 6.72594L0.247946 5.96057ZM-0.352729 12.0593C0.0545598 14.1069 1.05988 15.9877 2.5361 17.4639L3.95032 16.0497C2.7538 14.8532 1.93896 13.3287 1.60884 11.6691L-0.352729 12.0593ZM2.5361 17.4639C4.01232 18.9401 5.89313 19.9454 7.94071 20.3527L8.33089 18.3912C6.67128 18.061 5.14683 17.2462 3.95032 16.0497L2.5361 17.4639ZM7.94071 20.3527C9.98829 20.76 12.1107 20.551 14.0394 19.7521L13.2741 17.9043C11.7107 18.5518 9.9905 18.7213 8.33089 18.3912L7.94071 20.3527ZM14.0394 19.7521C15.9682 18.9531 17.6168 17.6002 18.7766 15.8644L17.1137 14.7532C16.1736 16.1602 14.8374 17.2568 13.2741 17.9043L14.0394 19.7521ZM18.7766 15.8644C19.9365 14.1285 20.5556 12.0877 20.5556 10H18.5556C18.5556 11.6921 18.0538 13.3463 17.1137 14.7532L18.7766 15.8644ZM20.5556 9.99907C20.553 7.20061 19.4401 4.51751 17.4613 2.53869L16.0471 3.95291C17.6513 5.5571 18.5534 7.73226 18.5556 10.0009L20.5556 9.99907ZM17.4613 2.53869C15.4825 0.559879 12.7994 -0.55295 10.0009 -0.55555L9.99907 1.44445C12.2677 1.44656 14.4429 2.34871 16.0471 3.95291L17.4613 2.53869Z" fill="#2EC754" mask="url(#path-2-inside-1)"/>
<path d="M8.22228 14.1867C8.19219 14.1863 8.16249 14.1798 8.13499 14.1676C8.10749 14.1553 8.08274 14.1377 8.06228 14.1156L5.11562 11.0045C5.09289 10.984 5.07462 10.9591 5.06195 10.9313C5.04929 10.9035 5.0425 10.8733 5.04201 10.8428C5.04153 10.8122 5.04737 10.7818 5.05914 10.7536C5.07092 10.7254 5.08838 10.6999 5.11045 10.6788C5.13253 10.6576 5.15873 10.6413 5.18741 10.6307C5.2161 10.6201 5.24666 10.6156 5.27718 10.6174C5.30769 10.6192 5.33752 10.6272 5.36478 10.6411C5.39204 10.6549 5.41617 10.6742 5.43562 10.6978L8.20895 13.6089L14.5689 5.8978C14.6079 5.85893 14.66 5.83592 14.7149 5.83322C14.7699 5.83052 14.824 5.84831 14.8666 5.88317C14.9092 5.91803 14.9373 5.96747 14.9456 6.0219C14.9538 6.07633 14.9415 6.13189 14.9112 6.1778L8.39117 14.1067C8.37101 14.1309 8.34592 14.1506 8.31757 14.1644C8.28921 14.1782 8.25825 14.1858 8.22673 14.1867H8.22228Z" stroke="white"/>
</svg>
