<svg width="20" height="20" viewBox="0 0 20 20" fill="none" xmlns="http://www.w3.org/2000/svg">
<circle cx="10" cy="10" r="10" fill="#D42323"/>
<mask id="path-2-inside-1" fill="white">
<path d="M9.99999 20C8.02218 20 6.08879 19.4135 4.4443 18.3147C2.79981 17.2159 1.5181 15.6541 0.761222 13.8268C0.00434563 11.9996 -0.193695 9.98891 0.192157 8.0491C0.578009 6.10929 1.53042 4.32746 2.92895 2.92893C4.32747 1.53041 6.10928 0.57801 8.04909 0.192158C9.9889 -0.193694 11.9996 0.00433259 13.8268 0.761209C15.6541 1.51808 17.2159 2.79981 18.3147 4.4443C19.4135 6.08879 20 8.02219 20 10C19.9965 12.6511 18.9418 15.1926 17.0672 17.0672C15.1926 18.9418 12.6511 19.9965 9.99999 20ZM9.99999 0.44445C8.11008 0.44445 6.26264 1.00488 4.69123 2.05486C3.11983 3.10483 1.89505 4.5972 1.17181 6.34325C0.448575 8.0893 0.259353 10.0106 0.628057 11.8642C0.99676 13.7178 1.90684 15.4204 3.24321 16.7568C4.57958 18.0932 6.28222 19.0032 8.13581 19.3719C9.98941 19.7407 11.9107 19.5514 13.6568 18.8282C15.4028 18.1049 16.8952 16.8802 17.9452 15.3088C18.9951 13.7374 19.5555 11.8899 19.5555 10C19.5532 7.46644 18.5457 5.0373 16.7542 3.2458C14.9627 1.4543 12.5336 0.446803 9.99999 0.44445Z"/>
</mask>
<path d="M20 10L21 10.0013V10H20ZM9.99999 0.44445L10.0009 -0.55555H9.99999V0.44445ZM19.5555 10H20.5555V9.99907L19.5555 10ZM9.99999 19C8.21996 19 6.47991 18.4722 4.99987 17.4832L3.88873 19.1462C5.69767 20.3549 7.82439 21 9.99999 21V19ZM4.99987 17.4832C3.51983 16.4943 2.36629 15.0887 1.6851 13.4442L-0.162658 14.2095C0.669905 16.2195 2.07979 17.9375 3.88873 19.1462L4.99987 17.4832ZM1.6851 13.4442C1.00391 11.7996 0.825676 9.99002 1.17294 8.24419L-0.788628 7.85401C-1.21307 9.98781 -0.995221 12.1995 -0.162658 14.2095L1.6851 13.4442ZM1.17294 8.24419C1.52021 6.49837 2.37738 4.89471 3.63605 3.63604L2.22184 2.22183C0.683462 3.7602 -0.364191 5.72022 -0.788628 7.85401L1.17294 8.24419ZM3.63605 3.63604C4.89473 2.37737 6.49835 1.52021 8.24418 1.17294L7.854 -0.788628C5.72021 -0.36419 3.76022 0.683449 2.22184 2.22183L3.63605 3.63604ZM8.24418 1.17294C9.99001 0.825676 11.7996 1.0039 13.4442 1.68509L14.2095 -0.162671C12.1995 -0.995236 9.98779 -1.21306 7.854 -0.788628L8.24418 1.17294ZM13.4442 1.68509C15.0887 2.36628 16.4943 3.51983 17.4832 4.99987L19.1462 3.88873C17.9375 2.07979 16.2195 0.669894 14.2095 -0.162671L13.4442 1.68509ZM17.4832 4.99987C18.4721 6.47991 19 8.21997 19 10H21C21 7.82441 20.3548 5.69767 19.1462 3.88873L17.4832 4.99987ZM19 9.99867C18.9968 12.385 18.0475 14.6727 16.3601 16.3601L17.7743 17.7743C19.8361 15.7125 20.9961 12.9172 21 10.0013L19 9.99867ZM16.3601 16.3601C14.6727 18.0474 12.385 18.9968 9.99866 19L10.0013 21C12.9172 20.9961 15.7125 19.8361 17.7743 17.7743L16.3601 16.3601ZM9.99999 -0.55555C7.91229 -0.55555 5.87151 0.0635289 4.13566 1.22339L5.2468 2.88632C6.65376 1.94623 8.30786 1.44445 9.99999 1.44445V-0.55555ZM4.13566 1.22339C2.39982 2.38324 1.04686 4.03179 0.247932 5.96057L2.09569 6.72594C2.74324 5.16262 3.83984 3.82643 5.2468 2.88632L4.13566 1.22339ZM0.247932 5.96057C-0.550994 7.88935 -0.760016 10.0117 -0.352729 12.0593L1.60884 11.6691C1.27872 10.0095 1.44814 8.28926 2.09569 6.72594L0.247932 5.96057ZM-0.352729 12.0593C0.0545598 14.1069 1.05988 15.9877 2.5361 17.4639L3.95032 16.0497C2.7538 14.8532 1.93896 13.3287 1.60884 11.6691L-0.352729 12.0593ZM2.5361 17.4639C4.01232 18.9401 5.89315 19.9454 7.94072 20.3527L8.3309 18.3912C6.67129 18.061 5.14683 17.2462 3.95032 16.0497L2.5361 17.4639ZM7.94072 20.3527C9.9883 20.76 12.1107 20.551 14.0394 19.7521L13.2741 17.9043C11.7107 18.5518 9.99052 18.7213 8.3309 18.3912L7.94072 20.3527ZM14.0394 19.7521C15.9682 18.9531 17.6168 17.6002 18.7766 15.8644L17.1137 14.7532C16.1736 16.1602 14.8374 17.2567 13.2741 17.9043L14.0394 19.7521ZM18.7766 15.8644C19.9365 14.1285 20.5555 12.0877 20.5555 10H18.5555C18.5555 11.6921 18.0538 13.3463 17.1137 14.7532L18.7766 15.8644ZM20.5555 9.99907C20.5529 7.20061 19.4401 4.51751 17.4613 2.53869L16.0471 3.95291C17.6513 5.5571 18.5534 7.73226 18.5555 10.0009L20.5555 9.99907ZM17.4613 2.53869C15.4825 0.559879 12.7994 -0.55295 10.0009 -0.55555L9.99906 1.44445C12.2677 1.44656 14.4429 2.34871 16.0471 3.95291L17.4613 2.53869Z" fill="#D42323" mask="url(#path-2-inside-1)"/>
<path d="M6.55991 13.6622C6.51642 13.6616 6.47406 13.6482 6.43809 13.6238C6.40211 13.5993 6.37411 13.5648 6.35755 13.5246C6.34098 13.4844 6.33661 13.4402 6.34493 13.3975C6.35325 13.3548 6.37391 13.3155 6.40437 13.2844L13.2799 6.40885C13.3218 6.36701 13.3785 6.3435 13.4377 6.3435C13.4969 6.3435 13.5536 6.36701 13.5955 6.40885C13.6373 6.4507 13.6608 6.50746 13.6608 6.56664C13.6608 6.62581 13.6373 6.68257 13.5955 6.72442L6.71993 13.6C6.6789 13.6418 6.62298 13.6658 6.56436 13.6666L6.55991 13.6622Z" stroke="white"/>
<path d="M13.4353 13.6622C13.3767 13.6614 13.3208 13.6374 13.2798 13.5956L6.40422 6.72002C6.3835 6.6993 6.36707 6.6747 6.35586 6.64763C6.34464 6.62056 6.33887 6.59154 6.33887 6.56224C6.33887 6.53293 6.34464 6.50393 6.35586 6.47686C6.36707 6.44978 6.3835 6.42519 6.40422 6.40447C6.42494 6.38375 6.44953 6.36731 6.4766 6.3561C6.50367 6.34489 6.53269 6.33911 6.56199 6.33911C6.59129 6.33911 6.62032 6.34489 6.64739 6.3561C6.67446 6.36731 6.69907 6.38375 6.71979 6.40447L13.5953 13.28C13.6258 13.3111 13.6464 13.3504 13.6548 13.3931C13.6631 13.4358 13.6587 13.48 13.6421 13.5202C13.6256 13.5604 13.5976 13.5949 13.5616 13.6194C13.5256 13.6438 13.4833 13.6572 13.4398 13.6578L13.4353 13.6622Z" stroke="white"/>
</svg>
